{
  "accessors": [
    {
      "bufferView": 2,
      "componentType": 5126,
      "count": 51860,
      "max": [
        3.151505947113037,
        7.124467849731445,
        -8.760388374328613
      ],
      "min": [
        -3.151505947113037,
        -2.780087947845459,
        -14.016231536865234
      ],
      "type": "VEC3"
    },
    {
      "bufferView": 2,
      "byteOffset": 622320,
      "componentType": 5126,
      "count": 51860,
      "max": [
        0.9999944567680359,
        0.9999368786811829,
        0.9999726414680481
      ],
      "min": [
        -0.9999944567680359,
        -0.9999503493309021,
        -0.999991774559021
      ],
      "type": "VEC3"
    },
    {
      "bufferView": 1,
      "componentType": 5126,
      "count": 51860,
      "max": [
        0.9900550246238708,
        0.9547410011291504
      ],
      "min": [
        0.00994499959051609,
        0.04515400156378746
      ],
      "type": "VEC2"
    },
    {
      "bufferView": 0,
      "componentType": 5125,
      "count": 231144,
      "type": "SCALAR"
    }
  ],
  "asset": {
    "extras": {
      "author": "Cécile Amstad (https://sketchfab.com/c.m.a)",
      "license": "CC-BY-4.0 (http://creativecommons.org/licenses/by/4.0/)",
      "source": "https://sketchfab.com/3d-models/fire-leviathan-279beca1275b437883d7bb8d7849fffc",
      "title": "Fire Leviathan"
    },
    "generator": "Sketchfab-12.64.0",
    "version": "2.0"
  },
  "bufferViews": [
    {
      "buffer": 0,
      "byteLength": 924576,
      "name": "floatBufferViews",
      "target": 34963
    },
    {
      "buffer": 0,
      "byteLength": 414880,
      "byteOffset": 924576,
      "byteStride": 8,
      "name": "floatBufferViews",
      "target": 34962
    },
    {
      "buffer": 0,
      "byteLength": 1244640,
      "byteOffset": 1339456,
      "byteStride": 12,
      "name": "floatBufferViews",
      "target": 34962
    }
  ],
  "buffers": [
    {
      "byteLength": 2584096,
      "uri": "scene.bin"
    }
  ],
  "images": [
    {
      "uri": "textures/null_baseColor.png"
    }
  ],
  "materials": [
    {
      "doubleSided": true,
      "emissiveFactor": [
        1.0,
        1.0,
        1.0
      ],
      "emissiveTexture": {
        "index": 0
      },
      "name": "null",
      "pbrMetallicRoughness": {
        "baseColorTexture": {
          "index": 0
        },
        "metallicFactor": 0.0,
        "roughnessFactor": 0.6
      }
    }
  ],
  "meshes": [
    {
      "name": "Object_0",
      "primitives": [
        {
          "attributes": {
            "NORMAL": 1,
            "POSITION": 0,
            "TEXCOORD_0": 2
          },
          "indices": 3,
          "material": 0,
          "mode": 4
        }
      ]
    }
  ],
  "nodes": [
    {
      "children": [
        1
      ],
      "matrix": [
        0.9991825222969055,
        -0.0404268242418766,
        -8.976558217161168e-18,
        0.0,
        0.0,
        2.220446049250313e-16,
        -1.0,
        0.0,
        0.0404268242418766,
        0.9991825222969055,
        2.2186308841141267e-16,
        0.0,
        0.4603922963142395,
        -0.009309755638241768,
        -2.067181012641976e-18,
        1.0
      ],
      "name": "Sketchfab_model"
    },
    {
      "children": [
        2
      ],
      "name": "sculptrisLeviathan.obj.cleaner.materialmerger.gles"
    },
    {
      "mesh": 0,
      "name": "Object_2"
    }
  ],
  "samplers": [
    {
      "magFilter": 9729,
      "minFilter": 9987,
      "wrapS": 10497,
      "wrapT": 10497
    }
  ],
  "scene": 0,
  "scenes": [
    {
      "name": "Sketchfab_Scene",
      "nodes": [
        0
      ]
    }
  ],
  "textures": [
    {
      "sampler": 0,
      "source": 0
    }
  ]
}
